<svg width="100" height="101" viewBox="0 0 100 101" fill="none" xmlns="http://www.w3.org/2000/svg">
<path d="M2.03516 14.5C2.03516 7.87258 7.40774 2.5 14.0352 2.5H86.0352C92.6626 2.5 98.0352 7.87258 98.0352 14.5V86.5C98.0352 93.1274 92.6626 98.5 86.0352 98.5H14.0352C7.40774 98.5 2.03516 93.1274 2.03516 86.5V14.5Z" fill="#111111"/>
<path d="M100.535 61.9156C100.537 64.113 100.494 66.173 100.44 68.7748C100.44 68.7762 100.44 68.7776 100.44 68.779C100.433 69.1507 100.425 69.5338 100.417 69.9296C100.352 73.1171 100.276 77.2588 100.232 83.5039C100.225 84.5351 100.215 85.5346 100.202 86.5C100.102 93.1796 95.6138 97.2003 92.7792 98.5495C92.1322 98.8547 91.4812 99.2454 89.6824 99.7525C88.7793 99.9889 87.6041 100.223 86.0352 100.218C85.6107 100.215 85.154 100.212 84.6616 100.209C83.553 100.202 82.2628 100.194 80.7523 100.184C75.7523 100.15 67.9163 100.16 60.6958 100.17C56.3134 100.176 52.1569 100.182 48.9999 100.177C44.3827 100.17 39.9277 100.139 35.0845 100.105C30.6492 100.073 25.8879 100.039 20.379 100.02C18.2417 100.013 16.1351 99.9764 14.0352 99.9241C11.7402 99.8766 9.47574 99.2141 7.53025 98.0302C7.02936 97.7264 6.54704 97.3879 6.09074 97.0198C3.05014 94.5833 1.08687 90.7021 1.17546 86.5C1.17821 86.3572 1.1809 86.214 1.18351 86.0704C1.3157 78.8137 1.26108 73.023 1.2006 66.6113C1.17695 64.1037 1.15236 61.5007 1.13773 58.6777C1.11461 54.2132 1.11928 47.7952 1.12583 41.3508C1.12639 40.8018 1.12679 40.2521 1.12736 39.7039C1.12736 39.7011 1.12736 39.6983 1.12736 39.6956C1.13351 33.7965 1.13955 28.0068 1.12614 23.7591C1.11128 19.0558 1.08232 16.3967 1.05187 14.5C1.04003 13.6081 1.10886 12.8691 1.21837 12.1808C1.35831 11.3281 1.55747 10.5459 1.89962 9.65174C2.98945 6.42561 6.99944 2.07403 12.399 1.51047C12.419 1.50797 12.439 1.50552 12.459 1.50311C13.3334 1.39817 14.0418 1.55344 14.0351 1.72435C14.0273 1.89874 13.3457 2.02565 12.5194 2.1263C9.86356 2.43212 7.42983 3.65154 5.70978 5.21583C5.71792 5.40837 5.33544 5.90023 4.8515 6.45267C4.09849 7.35233 1.92687 9.92172 1.96318 14.5C2.00591 16.6279 2.0575 19.1023 2.11646 21.9028C2.14352 21.3082 2.16986 20.8102 2.19489 20.3738C2.22428 19.8615 2.24954 19.4691 2.27119 19.1317C2.3163 18.4284 2.34607 17.9605 2.36793 17.1299C2.37741 16.396 2.38403 15.5019 2.38887 14.5C2.38921 12.925 2.74442 11.0626 3.60057 9.35334C3.94745 8.65183 4.42156 8.20793 4.56076 8.30763C4.70292 8.40839 4.47991 8.98322 4.15581 9.64194C4.14944 9.65487 4.14309 9.66782 4.13677 9.68079C3.36098 11.2476 3.01505 12.9896 3.01477 14.5C3.00966 15.5773 3.00253 16.5475 2.99203 17.3434C2.98529 17.8547 2.97731 18.2951 2.97006 18.6257C2.96426 18.8901 2.95639 19.22 2.94626 19.4034C2.94491 19.4277 2.94218 19.4742 2.93802 19.5295C2.93791 19.5305 2.93781 19.5314 2.93771 19.5323C2.93541 19.5633 2.92374 19.7214 2.89834 19.89C2.89321 19.924 2.88176 19.9981 2.86325 20.0841C2.86182 20.1062 2.8604 20.1284 2.85897 20.1506C2.8392 20.4598 2.81905 20.7753 2.79946 21.1168C2.72297 22.4502 2.62657 24.5622 2.52449 28.9603C2.43061 33.0055 2.38851 39.8438 2.38777 48.3764C2.40071 47.7999 2.41326 47.2222 2.42531 46.6449C2.45559 45.1921 2.4832 43.7327 2.50954 42.2727C2.5196 41.7134 2.52945 41.1616 2.53914 40.5994C2.55481 39.6944 2.5702 38.7868 2.58522 37.8796C2.59539 37.2665 2.60538 36.6522 2.61544 36.0386C2.61544 36.0372 2.61544 36.0358 2.61544 36.0344C2.62939 35.1828 2.64343 34.3289 2.65786 33.4685C2.66323 33.1673 2.66839 32.8698 2.67342 32.5743C2.69346 31.3984 2.71291 30.2431 2.75063 28.9132C2.75688 28.7515 2.76496 28.5757 2.77169 28.4446C2.77878 28.3037 2.78601 28.1681 2.79336 28.0398C2.79985 27.9267 2.80644 27.8189 2.81259 27.7155C2.8134 27.7016 2.81421 27.6877 2.81503 27.6739C2.8219 27.5581 2.82825 27.4475 2.83425 27.3412C2.84025 27.235 2.84603 27.1328 2.85104 27.032C2.85104 27.0311 2.85104 27.0302 2.85104 27.0293C2.85618 26.924 2.86004 26.8441 2.86447 26.7326C2.87001 26.5926 2.87428 26.4722 2.87851 26.3264C2.88262 26.1854 2.88629 26.0383 2.88949 25.8897C2.89269 25.7412 2.89549 25.59 2.89804 25.4364C2.90058 25.2828 2.90295 25.1266 2.90506 24.9693C2.90716 24.812 2.909 24.6526 2.91085 24.4924C2.91271 24.3321 2.91457 24.17 2.91635 24.0072C2.92048 23.6323 2.95514 23.2729 3.01401 23.0091C3.07287 22.7453 3.15073 22.5984 3.2313 22.6001C3.31188 22.6019 3.38933 22.7525 3.44737 23.0188C3.50538 23.2852 3.53904 23.646 3.54198 24.0211C3.54276 24.1232 3.54365 24.2258 3.54442 24.3288C3.54487 24.39 3.5452 24.4517 3.54564 24.5132C3.54681 24.6785 3.54811 24.8456 3.549 25.0136C3.54988 25.1815 3.55046 25.351 3.55083 25.5224C3.55119 25.6942 3.55131 25.8684 3.55083 26.045C3.55034 26.2212 3.54931 26.4013 3.54747 26.5843C3.54574 26.7628 3.54271 26.9664 3.53892 27.1485C3.53627 27.2816 3.53172 27.4456 3.52763 27.5824C3.52335 27.7251 3.51857 27.8656 3.51359 28.001C3.5086 28.1368 3.50332 28.268 3.49834 28.3933C3.49783 28.4067 3.49732 28.4201 3.49681 28.4335C3.4924 28.5443 3.48811 28.6513 3.4843 28.7524C3.48003 28.8654 3.47641 28.9724 3.47331 29.074C3.46983 29.1859 3.46845 29.254 3.4669 29.3374C3.45684 30.4404 3.45892 31.8038 3.4608 33.1039C3.46103 33.2672 3.4612 33.4297 3.46141 33.5905C3.46288 34.4444 3.46473 35.2965 3.4666 36.1481C3.46795 36.767 3.46936 37.3867 3.47056 38.0071C3.47236 38.9201 3.47378 39.8358 3.47484 40.7505C3.47545 41.3187 3.47585 41.8764 3.47606 42.4432C3.47666 43.9231 3.47581 45.4078 3.47209 46.8945C3.46835 48.379 3.46183 49.873 3.45073 51.368C3.43965 52.8572 3.4231 54.4043 3.39793 55.8983C3.37912 56.9966 3.34633 58.1226 3.31248 59.1643C3.29424 59.7242 3.27575 60.2724 3.25724 60.8126C3.25714 60.8144 3.25704 60.8163 3.25693 60.8181C3.24069 61.2923 3.22461 61.7604 3.20933 62.2252C3.17642 63.2217 3.14708 64.2005 3.12235 65.1793C3.0976 66.1566 3.07742 67.1296 3.06192 68.1099C3.04657 69.0828 3.03548 70.0721 3.02866 71.0516C3.02178 72.036 3.01898 73.0025 3.0192 74.0182C3.0198 75.3536 3.02539 76.6797 3.03201 78.0411C3.03877 79.3926 3.04725 80.7549 3.05582 82.1209C3.05883 82.5983 3.06161 83.0767 3.06467 83.5557C3.06467 83.5575 3.06467 83.5594 3.06467 83.5612C3.07032 84.4472 3.076 85.3354 3.08145 86.2243C3.08202 86.3162 3.08258 86.4081 3.08314 86.5C3.09058 87.6731 3.28388 88.8401 3.66027 89.9519C4.06248 91.1425 4.67576 92.2697 5.46612 93.2655C6.25535 94.2623 7.24172 95.1472 8.35777 95.8382C9.352 96.4556 10.4565 96.9154 11.5806 97.1832C11.8786 97.2545 12.1777 97.3128 12.4802 97.3588C13.0003 97.4377 13.5173 97.4779 14.0352 97.4821C15.0276 97.4893 16.0045 97.4945 16.9743 97.4958C18.4929 97.4982 20.0106 97.4917 21.5421 97.4781C23.0689 97.4646 24.615 97.4443 26.1736 97.4198C27.7389 97.3953 29.2841 97.3669 30.8606 97.3359C32.4251 97.305 33.9968 97.2718 35.5877 97.2367C36.4721 97.2173 37.4131 97.1994 38.302 97.1842C39.1997 97.1689 40.0915 97.1553 40.972 97.1427C41.3293 97.1376 41.6849 97.1327 42.038 97.1278C42.5529 97.1205 43.0633 97.1135 43.5657 97.1061C44.4135 97.0936 45.2407 97.0803 46.0443 97.0646C46.8476 97.0489 47.6271 97.0307 48.3802 97.0084C49.1596 96.9853 49.8021 96.9618 50.5705 96.9282C52.4419 96.8633 53.6015 96.8434 54.8901 96.8211C55.1439 96.8167 55.4032 96.812 55.6734 96.807C57.2185 96.7819 58.7621 96.7632 60.2855 96.749C61.8236 96.7349 63.3377 96.7253 64.8712 96.7197C66.39 96.7142 67.9196 96.7129 69.4431 96.7152C70.9643 96.7174 72.4829 96.7234 74.0054 96.7332C75.5268 96.7429 77.0795 96.7567 78.5703 96.7734C79.4319 96.7831 80.3472 96.796 81.1973 96.8092C81.8105 96.8186 82.4151 96.8286 83.0078 96.8384C83.2498 96.8425 83.4904 96.8465 83.7286 96.8504C84.5201 96.8633 85.2902 96.8754 86.0352 96.8847C86.0599 96.8851 86.0845 96.8853 86.1091 96.8855C86.7787 96.8903 87.4262 96.8294 88.048 96.7101C88.6707 96.5906 89.2679 96.413 89.8426 96.1802C90.437 95.9361 90.914 95.6906 91.4862 95.3207C91.8577 95.078 92.2056 94.8167 92.5349 94.5363C93.0277 94.1164 93.4768 93.6543 93.8808 93.1522C94.2841 92.6506 94.6345 92.1192 94.9331 91.559C95.0293 91.3786 95.1244 91.186 95.2092 90.9998C95.4708 90.4254 95.6744 89.8352 95.8211 89.2335C95.9674 88.6329 96.0556 88.0259 96.0877 87.4189C96.104 87.1113 96.1058 86.8069 96.0939 86.5C96.0821 86.144 96.07 85.7878 96.0574 85.428C96.0141 84.1937 95.994 83.0122 95.9805 81.9776C95.9672 80.9306 95.9598 79.9522 95.9528 78.9999C95.9514 78.8215 95.9501 78.6432 95.9488 78.4648C95.9433 77.6966 95.938 76.9411 95.9317 76.1969C95.9239 75.2796 95.9147 74.3791 95.9036 73.4756C95.8927 72.58 95.8799 71.6756 95.8649 70.7849C95.8496 69.8858 95.8332 69.0261 95.813 68.0997C95.7932 67.1834 95.7673 66.2528 95.7391 65.2329C95.7112 64.2222 95.6824 63.1615 95.6573 62.0875C95.6321 61.0144 95.6104 59.9244 95.5933 58.8422C95.576 57.7578 95.563 56.6698 95.5539 55.597C95.5447 54.5183 95.5393 53.4461 95.5368 52.3794C95.5343 51.3152 95.5347 50.2158 95.5377 49.1869C95.5425 47.5207 95.5494 45.8621 95.5569 44.2004C95.5645 42.548 95.573 40.8904 95.582 39.2362C95.5909 37.5851 95.6003 35.932 95.61 34.2817C95.6198 32.6306 95.6298 30.9797 95.6399 29.3313C95.6422 28.9668 95.6444 28.6022 95.6467 28.2376C95.6545 26.9539 95.6625 25.6703 95.6702 24.3921C95.6703 24.3833 95.6704 24.3745 95.6705 24.3657C95.6803 22.7205 95.6898 21.1051 95.6979 19.4736C95.7008 18.8747 95.7036 18.2992 95.7059 17.7144C95.7081 17.129 95.71 16.5545 95.7114 15.9747C95.7125 15.4795 95.7132 14.9868 95.7134 14.5C95.7135 14.4316 95.7128 14.3635 95.7114 14.2957C95.7017 13.8318 95.6594 13.3789 95.5845 12.9305C95.5153 12.519 95.4207 12.115 95.2865 11.6836C95.2742 11.6444 95.2617 11.6051 95.2489 11.5658C95.0967 11.0956 94.882 10.574 94.6443 10.1081C94.0173 8.87294 93.1394 7.79933 92.0628 6.93899C90.9853 6.07821 89.7264 5.45493 88.3845 5.12458C87.8598 4.99509 87.3231 4.91025 86.7803 4.87062C86.532 4.85252 86.2859 4.84393 86.0352 4.84462C85.2909 4.84637 84.5449 4.84804 83.7972 4.84943C82.0581 4.8527 80.3154 4.85419 78.5613 4.85218C76.8139 4.85018 75.0553 4.84454 73.3046 4.83479C71.5552 4.82507 69.7907 4.81131 68.0492 4.79389C66.109 4.7744 64.1799 4.75287 62.2422 4.73041C60.3076 4.70792 58.3719 4.68437 56.4448 4.66022C54.5106 4.63604 52.5814 4.6112 50.6516 4.58575C48.7206 4.5603 46.7909 4.53424 44.8598 4.50763C43.704 4.49169 42.5486 4.47546 41.3927 4.4591C40.7811 4.47379 40.1948 4.48818 39.6308 4.50183C35.4631 4.60269 32.4497 4.67543 28.4741 4.72553C28.0933 4.73312 27.7836 4.74392 27.4067 4.75696C27.3348 4.75945 27.2585 4.76194 27.1807 4.76459C26.6881 4.78138 26.1225 4.79895 25.3356 4.81007C23.7658 4.83223 21.3597 4.82741 18.2504 4.68128C17.4649 4.64436 16.9651 4.47773 17.1344 4.30895C17.2534 4.19057 17.6706 4.1026 18.1797 4.07335C17.2391 4.05327 16.3011 4.03226 15.3655 4.0114C14.9921 4.00304 14.6415 3.9642 14.3924 3.90245C14.1434 3.84067 14.016 3.76133 14.0375 3.68088C14.059 3.60042 14.2285 3.52495 14.5088 3.47C14.7891 3.41512 15.1567 3.38539 15.5319 3.38669C16.5271 3.39027 17.5189 3.3939 18.511 3.39645C19.5038 3.39904 20.492 3.40055 21.4831 3.40133C22.474 3.40212 23.4645 3.40202 24.4581 3.40133C25.4478 3.40061 26.4395 3.39945 27.433 3.39767C28.4328 3.39593 29.4137 3.3935 30.4107 3.39096C31.008 3.38941 31.6125 3.38787 32.2059 3.38608C32.4271 3.38546 32.6429 3.38461 32.8588 3.38394C33.0353 3.38339 33.2127 3.38294 33.3953 3.38241C35.3162 3.37628 37.2555 3.36942 39.1775 3.36197C41.1085 3.35455 43.0375 3.34671 44.9665 3.33847C46.8966 3.33022 48.825 3.32144 50.7542 3.31253C52.6825 3.3036 54.6096 3.29438 56.5404 3.28475C58.4641 3.27509 60.3957 3.26522 62.3226 3.25454C63.813 3.24629 65.2909 3.23743 66.7711 3.22799C67.3539 3.21185 67.9306 3.19659 68.4998 3.18191C70.1566 3.13916 71.8157 3.08306 73.4501 3.02748C70.5411 3.05512 68.2043 3.09828 65.9795 3.13949C65.6813 3.14501 65.385 3.15056 65.0896 3.15597C62.0741 3.21117 59.1611 3.2579 55.2429 3.24752C44.0993 3.218 37.6378 3.19646 33.6116 3.15627C29.5861 3.11608 27.8564 3.0565 26.2422 2.93806C23.9612 2.77069 19.5588 2.67549 17.3465 2.67194C16.5429 2.67066 15.8942 2.52946 15.8979 2.35669C15.9017 2.18388 16.5566 2.04473 17.3604 2.04601C19.6963 2.04974 24.4602 2.14651 27.1751 2.3457C28.3844 2.43443 29.7749 2.49168 33.7391 2.53125C37.7037 2.57083 44.1056 2.59201 55.2706 2.62159C59.0478 2.63159 61.8511 2.58709 64.8345 2.53247C65.127 2.52712 65.4217 2.5215 65.7189 2.51599C65.7208 2.51599 65.7226 2.51599 65.7245 2.51599C68.4649 2.46522 71.4489 2.40987 75.4727 2.38538C78.7787 2.36525 82.4915 2.33839 86.0352 2.30935C92.9211 2.1471 96.9283 8.08451 97.4453 9.78626C97.6847 10.3347 97.8804 10.8802 98.044 11.4704C98.2793 12.3315 98.4576 13.289 98.4829 14.5C98.5191 16.3978 98.5548 18.9104 98.5819 22.7438C98.5915 24.0973 98.5971 25.6828 98.5996 27.4128C98.6838 30.0089 98.762 32.5294 98.8084 34.7212C98.8484 36.6127 98.9221 38.357 99.0028 40.0472C99.026 40.5338 99.0503 41.0235 99.0745 41.5125C99.1328 42.6918 99.1911 43.8715 99.2362 45.0211C99.2722 45.9376 99.3154 46.8972 99.3611 47.9115C99.5274 51.6062 99.7268 56.0337 99.7294 61.8033C99.7322 67.9194 99.6962 73.1557 99.6611 77.6719C99.7017 74.3552 99.7504 71.7949 99.7938 69.662C99.802 69.2597 99.8099 68.8742 99.8176 68.5031C99.8718 65.8818 99.9111 63.976 99.9095 61.9336C99.9016 52.178 99.8485 48.5189 99.6952 44.3904C99.6549 43.3034 99.6011 42.1043 99.5433 40.8124C99.4276 38.2304 99.2954 35.2771 99.2198 32.1039C99.1493 29.1483 99.0454 25.8428 98.9353 22.3404C98.9353 22.339 98.9353 22.3376 98.9353 22.3362C98.9138 21.6519 98.8921 20.9594 98.8703 20.261C98.8115 18.3741 98.7525 16.4439 98.6978 14.5C98.638 11.9214 97.7561 9.36895 96.2593 7.33325C95.9733 6.94175 95.6064 6.4892 95.1423 6.01232C93.5212 4.31631 90.3476 2.17368 86.0352 2.20527C83.5249 2.22175 80.7377 2.22052 77.7462 2.18548C76.0031 2.16506 74.1918 2.12179 72.1249 2.07226C71.4953 2.05717 70.8416 2.04131 70.1591 2.02556C67.2128 1.95756 63.6331 1.88531 58.8666 1.84184C54.9329 1.80597 50.1388 1.78876 45.1606 1.77073C42.7085 1.76185 40.2117 1.75263 37.751 1.74113C30.3181 1.7064 23.5056 1.65132 16.7061 1.59617C16.7047 1.59617 16.7033 1.59617 16.7019 1.59617C15.8986 1.58965 15.2694 1.44414 15.2976 1.27145C15.3261 1.09885 16.0002 0.964076 16.8031 0.97054C23.6067 1.02573 30.3984 1.08089 37.8064 1.1155C40.2297 1.12682 42.7069 1.13595 45.1495 1.1448C50.1519 1.16293 55.0127 1.18031 58.9831 1.21652C63.8306 1.26073 67.4759 1.33435 70.4627 1.40329C71.1821 1.4199 71.8585 1.43613 72.5005 1.45151C74.5446 1.50047 76.2439 1.5414 77.8973 1.56077C80.8406 1.59524 83.574 1.59609 86.0352 1.57937C90.3569 1.54822 93.6025 3.60079 95.3466 5.32667C95.8607 5.82772 96.2718 6.30983 96.5988 6.73791C98.2683 8.90828 99.2674 11.684 99.3291 14.5C99.3801 16.2914 99.4347 18.0767 99.4895 19.8354C99.5111 20.5257 99.5325 21.2125 99.5539 21.894C99.554 21.8954 99.5541 21.8968 99.5542 21.8982C99.6643 25.3997 99.77 28.7648 99.8417 31.7753C99.9145 34.8311 100.034 37.4961 100.147 39.989C100.207 41.3266 100.264 42.6149 100.312 43.8871C100.474 48.2671 100.527 52.1286 100.535 61.9156ZM19.6339 4.10356C21.5671 4.18199 23.1422 4.19852 24.3153 4.19329C23.3191 4.17547 22.3252 4.15678 21.3306 4.13744C20.7646 4.12644 20.1992 4.11515 19.6339 4.10356ZM97.9743 27.6498C97.9641 27.3366 97.9538 27.021 97.9435 26.7044C97.9484 27.5785 97.9529 28.4529 97.9575 29.3258C97.9631 30.3977 97.9684 31.4693 97.9737 32.5406C97.9757 30.8372 97.9763 29.1867 97.9743 27.6498ZM99.1035 61.8171C99.101 56.376 98.9185 52.31 98.7537 48.6434C98.7063 47.5876 98.6604 46.5637 98.6207 45.5507C98.6042 45.1306 98.586 44.7109 98.5667 44.2878C98.5569 46.7519 98.5465 49.0169 98.538 50.8712C98.5124 56.4042 98.4591 59.5532 98.4122 62.3203C98.3987 63.1209 98.3857 63.8904 98.3741 64.6756C98.3951 65.3253 98.4159 65.9998 98.4342 66.6815C98.4601 67.636 98.4849 68.6677 98.5059 69.6495C98.5271 70.6351 98.5461 71.6366 98.5621 72.6203C98.5782 73.6121 98.5916 74.5948 98.6033 75.5731C98.6143 76.4935 98.6236 77.4108 98.6326 78.2985C98.6331 78.3493 98.6336 78.4001 98.6341 78.451C98.6437 79.3891 98.6529 80.3018 98.6655 81.1403C98.6786 81.9939 98.6939 82.7036 98.7171 83.3334C98.746 84.1199 98.7738 84.9268 98.7995 85.7247C98.8079 85.9835 98.8161 86.2419 98.8241 86.5C98.8407 87.0756 98.8189 87.6466 98.7577 88.219C98.6671 89.0646 98.4921 89.8953 98.2345 90.7042C98.1516 90.9649 98.0548 91.2371 97.9554 91.49C97.9095 91.6069 97.8618 91.7235 97.8126 91.8386C98.5032 90.3262 98.9215 88.6129 98.9697 86.8289C98.9727 86.7199 98.9744 86.6103 98.9748 86.5C98.983 84.1954 99.0026 81.7385 99.0241 79.0401C99.0624 74.2335 99.1066 68.6606 99.1035 61.8171ZM76.3842 99.4838C77.0552 99.4822 78.0377 99.4773 79.3051 99.471C79.6047 99.4695 79.9208 99.4677 80.2519 99.4661C80.2441 99.4659 80.2361 99.4659 80.2283 99.4658C79.4074 99.4498 78.6495 99.4359 77.8315 99.4231C76.3732 99.4002 74.9566 99.3806 73.5257 99.3639C72.0893 99.347 70.6568 99.3333 69.2227 99.3223C67.7865 99.3114 66.3461 99.3036 64.9184 99.2989C63.4767 99.2942 62.0556 99.2923 60.6209 99.2946C60.1639 99.2953 59.7055 99.2964 59.2472 99.2979C60.2703 99.3137 61.3327 99.3267 62.455 99.3404C63.3512 99.3513 64.286 99.3627 65.2691 99.3764C65.6453 99.3816 66.1006 99.3896 66.6318 99.3989C68.737 99.436 72.0402 99.4943 76.3842 99.4838ZM47.8021 99.4704C47.4691 99.4745 47.1381 99.4783 46.811 99.4813C45.8794 99.4901 44.9715 99.4952 44.0814 99.499C43.4562 99.5017 42.8383 99.5037 42.2293 99.5058C41.9723 99.5066 41.7156 99.5076 41.4613 99.5085C41.0354 99.51 40.6126 99.5118 40.1929 99.5137C43.1368 99.5325 46.0146 99.547 49.0137 99.5515C49.0533 99.5516 49.093 99.5515 49.1329 99.5515C48.679 99.5239 48.2356 99.4968 47.8021 99.4704Z" fill="#FFE0C2"/>
<path d="M12.6689 91.0342L12.6689 98.5342L27.6689 98.5342L27.6689 91.0342L20.1689 91.0342L12.6689 91.0342ZM27.6689 21.7008C27.6689 17.5587 24.3111 14.2008 20.1689 14.2008C16.0268 14.2008 12.6689 17.5587 12.6689 21.7008L20.1689 21.7008L27.6689 21.7008ZM20.1689 91.0342L27.6689 91.0342L27.6689 21.7008L20.1689 21.7008L12.6689 21.7008L12.6689 91.0342L20.1689 91.0342Z" fill="#FFE0C2"/>
<path d="M72.4014 52.6334C72.4014 56.7756 75.7592 60.1334 79.9014 60.1334C84.0435 60.1334 87.4014 56.7756 87.4014 52.6334H79.9014H72.4014ZM87.4014 9.96675V2.46675H72.4014V9.96675H79.9014H87.4014ZM79.9014 52.6334H87.4014V9.96675H79.9014H72.4014V52.6334H79.9014Z" fill="#FFE0C2"/>
<path d="M26.4362 18.2432C23.7419 14.9326 19.1583 14.6986 16.141 17.7176C13.0672 20.7933 12.7982 26.0592 15.5429 29.4318L52.2299 74.5103C53.0734 75.5468 53.4093 75.9511 53.7911 76.2612C54.1449 76.5485 54.53 76.7792 54.9352 76.9483C55.3674 77.1287 55.8433 77.2185 57.0957 77.438L65.7668 78.9573L65.284 69.1073C65.2158 67.7144 65.184 67.1442 65.0583 66.6151C64.9425 66.1277 64.768 65.663 64.5411 65.2334C64.2969 64.7708 63.9639 64.3549 63.1231 63.3217L26.4362 18.2432Z" fill="#FFE0C2" stroke="#FFE0C2" stroke-width="2" stroke-linecap="round" stroke-linejoin="round"/>
</svg>
