<svg width="96" height="97" viewBox="0 0 96 97" fill="none" xmlns="http://www.w3.org/2000/svg">
<rect x="0.5" y="0.533203" width="95" height="95" rx="11.5" fill="#111111" stroke="#111111"/>
<path d="M10.6338 88.5674L10.6338 96.0674L25.6338 96.0674L25.6338 88.5674L18.1338 88.5674L10.6338 88.5674ZM25.6338 19.234C25.6338 15.0919 22.2759 11.734 18.1338 11.734C13.9917 11.734 10.6338 15.0919 10.6338 19.234L18.1338 19.234L25.6338 19.234ZM18.1338 88.5674L25.6338 88.5674L25.6338 19.234L18.1338 19.234L10.6338 19.234L10.6338 88.5674L18.1338 88.5674Z" fill="#FFE0C2"/>
<path d="M70.3662 50.1666C70.3662 54.3088 73.7241 57.6666 77.8662 57.6666C82.0083 57.6666 85.3662 54.3088 85.3662 50.1666H77.8662H70.3662ZM85.3662 7.49996V-4.19617e-05H70.3662V7.49996H77.8662H85.3662ZM77.8662 50.1666H85.3662V7.49996H77.8662H70.3662V50.1666H77.8662Z" fill="#FFE0C2"/>
<path d="M22.4118 37.9049L50.1947 72.0435C51.0382 73.08 51.3742 73.4843 51.7559 73.7944C52.1098 74.0817 52.4949 74.3124 52.9001 74.4815C53.3322 74.6619 53.8082 74.7517 55.0606 74.9712L63.7317 76.4905L63.2489 66.6405C63.1807 65.2476 63.1488 64.6774 63.0231 64.1483C62.9073 63.6609 62.7328 63.1962 62.506 62.7666C62.2617 62.304 61.9288 61.8881 61.0879 60.8549L33.4348 26.8754L22.4118 37.9049ZM24.401 15.7764C21.7067 12.4658 17.1232 12.2318 14.1058 15.2508C11.0321 18.3265 10.7631 23.5924 13.5078 26.965L21.143 36.345L32.1659 25.3165L24.401 15.7764Z" fill="#FFE0C2" stroke="#FFE0C2" stroke-width="2" stroke-linecap="round" stroke-linejoin="round"/>
</svg>
