<svg width="96" height="97" viewBox="0 0 96 97" fill="none" xmlns="http://www.w3.org/2000/svg">
<rect x="0.5" y="0.533447" width="95" height="95" rx="11.5" fill="#171717" stroke="#171717"/>
<path d="M10.6333 88.5676L10.6333 96.0676L25.6333 96.0676L25.6333 88.5676L18.1333 88.5676L10.6333 88.5676ZM25.6333 19.2343C25.6333 15.0922 22.2755 11.7343 18.1333 11.7343C13.9912 11.7343 10.6333 15.0922 10.6333 19.2343L18.1333 19.2343L25.6333 19.2343ZM18.1333 88.5676L25.6333 88.5676L25.6333 19.2343L18.1333 19.2343L10.6333 19.2343L10.6333 88.5676L18.1333 88.5676Z" fill="#E5E5E5"/>
<path d="M70.3664 50.1667C70.3664 54.3089 73.7242 57.6667 77.8664 57.6667C82.0085 57.6667 85.3664 54.3089 85.3664 50.1667H77.8664H70.3664ZM85.3664 7.50008V8.01086e-05H70.3664V7.50008H77.8664H85.3664ZM77.8664 50.1667H85.3664V7.50008H77.8664H70.3664V50.1667H77.8664Z" fill="#E5E5E5"/>
<path d="M24.4006 15.7766C21.7063 12.4661 17.1228 12.232 14.1054 15.251C11.0317 18.3268 10.7627 23.5927 13.5074 26.9653L50.1943 72.0438C51.0378 73.0803 51.3738 73.4846 51.7555 73.7946C52.1093 74.082 52.4945 74.3126 52.8997 74.4818C53.3318 74.6621 53.8077 74.7519 55.0601 74.9715L63.7312 76.4907L63.2484 66.6408C63.1802 65.2479 63.1484 64.6777 63.0227 64.1485C62.9069 63.6612 62.7324 63.1965 62.5055 62.7668C62.2613 62.3042 61.9283 61.8883 61.0875 60.8551L24.4006 15.7766Z" fill="#E5E5E5" stroke="#E5E5E5" stroke-width="2" stroke-linecap="round" stroke-linejoin="round"/>
</svg>
