<svg width="90" height="92" viewBox="0 0 90 92" fill="none" xmlns="http://www.w3.org/2000/svg">
<rect x="1.43051e-06" y="0.999268" width="90" height="90" rx="12" fill="#E5E5E5"/>
<path d="M12.5 84L12.5 91.5L27.5 91.5L27.5 84L12.5 84ZM27.5 19C27.5 14.8579 24.1422 11.5 20 11.5C15.8579 11.5 12.5 14.8579 12.5 19L27.5 19ZM27.5 84L27.5 19L12.5 19L12.5 84L27.5 84Z" fill="#171717"/>
<path d="M65.4997 47.9993C65.4997 52.1414 68.8576 55.4993 72.9997 55.4993C77.1419 55.4993 80.4997 52.1414 80.4997 47.9993H65.4997ZM80.4997 7.99927V0.499268H65.4997V7.99927H80.4997ZM80.4997 47.9993V7.99927H65.4997V47.9993H80.4997Z" fill="#171717"/>
<path d="M24.0946 36.5057L50.1055 68.4667C50.8982 69.4408 51.2084 69.814 51.5601 70.0997C51.8874 70.3655 52.2432 70.5784 52.6175 70.7347C53.0147 70.9005 53.453 70.983 54.63 71.1893L62.6811 72.6006L62.2328 63.4443C62.1688 62.1361 62.139 61.6086 62.0228 61.1194C61.9155 60.6674 61.7538 60.2366 61.5436 59.8385C61.3182 59.4115 61.0109 59.0269 60.2209 58.0562L34.34 26.2549L24.0946 36.5057ZM33.0709 24.6955L25.8275 15.7952C23.325 12.7202 19.071 12.5031 16.2684 15.3072C13.4091 18.168 13.159 23.0685 15.712 26.2056L22.8255 34.9463L33.0709 24.6955Z" fill="#171717" stroke="#171717" stroke-width="2" stroke-linecap="round" stroke-linejoin="round"/>
</svg>
