<svg width="96" height="97" viewBox="0 0 96 97" fill="none" xmlns="http://www.w3.org/2000/svg">
<rect y="0.0333252" width="96" height="96" rx="12" fill="#F9F9F9"/>
<path d="M10.6338 88.5675L10.6338 96.0675L25.6338 96.0675L25.6338 88.5675L18.1338 88.5675L10.6338 88.5675ZM25.6338 19.2342C25.6338 15.092 22.2759 11.7342 18.1338 11.7342C13.9917 11.7342 10.6338 15.092 10.6338 19.2342L18.1338 19.2342L25.6338 19.2342ZM18.1338 88.5675L25.6338 88.5675L25.6338 19.2342L18.1338 19.2342L10.6338 19.2342L10.6338 88.5675L18.1338 88.5675Z" fill="#644A40"/>
<path d="M70.3672 50.1666C70.3672 54.3088 73.7251 57.6666 77.8672 57.6666C82.0093 57.6666 85.3672 54.3088 85.3672 50.1666H77.8672H70.3672ZM85.3672 7.49996V-4.19617e-05H70.3672V7.49996H77.8672H85.3672ZM77.8672 50.1666H85.3672V7.49996H77.8672H70.3672V50.1666H77.8672Z" fill="#644A40"/>
<path d="M22.4118 37.905L50.1947 72.0437C51.0382 73.0801 51.3742 73.4844 51.7559 73.7945C52.1098 74.0818 52.4949 74.3125 52.9001 74.4816C53.3322 74.662 53.8082 74.7518 55.0606 74.9713L63.7317 76.4906L63.2489 66.6407C63.1807 65.2478 63.1488 64.6776 63.0231 64.1484C62.9073 63.6611 62.7328 63.1964 62.506 62.7667C62.2617 62.3041 61.9288 61.8882 61.0879 60.855L33.4348 26.8755L22.4118 37.905ZM24.401 15.7765C21.7067 12.466 17.1232 12.2319 14.1058 15.2509C11.0321 18.3266 10.7631 23.5925 13.5078 26.9652L21.143 36.3451L32.1659 25.3166L24.401 15.7765Z" fill="#644A40" stroke="#644A40" stroke-width="2" stroke-linecap="round" stroke-linejoin="round"/>
</svg>
